<svg width="100%" height="100%" viewBox="0 0 79 60" fill="none" xmlns="http://www.w3.org/2000/svg">
<path d="M64.8875 57.5H9.0625C5.28125 57.5 2.1875 54.4062 2.1875 50.625V5.9375H70.0437C74.1687 5.9375 77.4 9.58125 76.85 13.6375L71.6937 51.45C71.2812 54.8875 68.325 57.5 64.8875 57.5Z" fill="#D0CDCD"/>
<path d="M67.5 57.5H9.0625C5.28125 57.5 2.1875 54.4062 2.1875 50.625V2.5H19.1C21.3687 2.5 23.5688 3.66875 24.8063 5.59375L27.625 9.7875C28.9312 11.7125 31.0625 12.8812 33.3312 12.8812H57.1875C60.9688 12.8812 64.0625 15.975 64.0625 19.7562V47.9437V49.25C64.0625 52.3438 65.3 55.3 67.5 57.5Z" fill="white"/>
<path d="M64.8875 59.5625H9.0625C4.1125 59.5625 0.125 55.575 0.125 50.625V2.5C0.125 1.33125 1.01875 0.4375 2.1875 0.4375H19.1C22.125 0.4375 24.875 1.95 26.525 4.425L29.3438 8.61875C30.2375 9.99375 31.75 10.75 33.3313 10.75H57.1875C62.1375 10.75 66.125 14.7375 66.125 19.6875V43.75C66.125 44.9188 65.2313 45.8125 64.0625 45.8125C62.8938 45.8125 62 44.9188 62 43.75V19.6875C62 17.0063 59.8688 14.875 57.1875 14.875H33.4C30.375 14.875 27.625 13.3625 25.975 10.8875L23.1563 6.69375C22.2625 5.31875 20.75 4.5625 19.1688 4.5625H4.25V50.625C4.25 53.3063 6.38125 55.4375 9.0625 55.4375H64.8875C67.2938 55.4375 69.3563 53.65 69.6313 51.2438L74.7875 13.4313C74.925 12.0563 74.5125 10.6813 73.6188 9.65C72.725 8.61875 71.4188 8 70.0438 8C68.875 8 67.9813 7.10625 67.9813 5.9375C67.9813 4.76875 68.875 3.875 70.0438 3.875C72.5875 3.875 75.0625 4.975 76.7125 6.9C78.4313 8.825 79.1875 11.3687 78.9125 13.9125L73.7563 51.725C73.2063 56.1937 69.3563 59.5625 64.8875 59.5625Z" fill="#2F2E2E"/>
<path d="M70.0437 8H25.5625C24.3937 8 23.5 7.10625 23.5 5.9375C23.5 4.76875 24.3937 3.875 25.5625 3.875H70.0437C71.2125 3.875 72.1062 4.76875 72.1062 5.9375C72.1062 7.10625 71.1437 8 70.0437 8Z" fill="#2F2E2E"/>
</svg>
