<svg width="55" height="50" viewBox="0 0 55 50" fill="none" xmlns="http://www.w3.org/2000/svg">
<path d="M38.5478 38.3332C40.6248 38.3332 42.3085 36.675 42.3085 34.6295C42.3085 32.5839 40.6248 30.9258 38.5478 30.9258C36.4708 30.9258 34.7871 32.5839 34.7871 34.6295C34.7871 36.675 36.4708 38.3332 38.5478 38.3332Z" stroke="#2F2E2E" stroke-width="3" stroke-linecap="round" stroke-linejoin="round"/>
<path d="M20.3701 38.3337C22.447 38.3337 24.1307 36.6755 24.1307 34.63C24.1307 32.5844 22.447 30.9263 20.3701 30.9263C18.2931 30.9263 16.6094 32.5844 16.6094 34.63C16.6094 36.6755 18.2931 38.3337 20.3701 38.3337Z" stroke="#2F2E2E" stroke-width="3" stroke-linecap="round" stroke-linejoin="round"/>
<path d="M8.46094 5.09479C8.46094 5.09479 17.0112 4.98726 15.8318 12.2633L14.5605 19.5394C14.3719 20.4118 14.3904 21.3145 14.6148 22.179C14.8391 23.0433 15.2634 23.8466 15.8551 24.5276C16.4468 25.2084 17.1905 25.7489 18.0295 26.1082C18.8685 26.4674 19.7807 26.6356 20.6966 26.6003H35.4384C37.4799 26.5414 39.4406 25.8111 41.0002 24.5286C42.5597 23.2462 43.6263 21.4872 44.0254 19.5394L45.2971 12.1737C45.4983 11.2915 45.4884 10.376 45.2682 9.49809C45.0478 8.62017 44.6228 7.80321 44.0264 7.11039C43.4297 6.41756 42.6773 5.86737 41.8272 5.50235C40.9772 5.13733 40.0522 4.96726 39.1238 5.0052H23.0921" stroke="#2F2E2E" stroke-width="3" stroke-linecap="round" stroke-linejoin="round"/>
</svg>
