<svg width="100%" height="100%" viewBox="0 0 31 28" fill="none" xmlns="http://www.w3.org/2000/svg">
<path d="M24.1674 27.0004C25.7668 27.0004 27.0633 25.7071 27.0633 24.1115C27.0633 22.516 25.7668 21.2227 24.1674 21.2227C22.568 21.2227 21.2715 22.516 21.2715 24.1115C21.2715 25.7071 22.568 27.0004 24.1674 27.0004Z" stroke="white" stroke-width="2" stroke-linecap="round" stroke-linejoin="round"/>
<path d="M10.1713 27.0004C11.7706 27.0004 13.0672 25.7071 13.0672 24.1115C13.0672 22.516 11.7706 21.2227 10.1713 21.2227C8.57193 21.2227 7.27539 22.516 7.27539 24.1115C7.27539 25.7071 8.57193 27.0004 10.1713 27.0004Z" stroke="white" stroke-width="2" stroke-linecap="round" stroke-linejoin="round"/>
<path d="M1 1.07393C1 1.07393 7.58403 0.990063 6.67588 6.66533L5.69688 12.3406C5.55169 13.0211 5.56594 13.7252 5.73871 14.3995C5.91147 15.0737 6.23816 15.7002 6.69381 16.2314C7.14947 16.7625 7.72213 17.1841 8.36819 17.4643C9.01425 17.7445 9.71665 17.8757 10.422 17.8482H21.7737C23.3458 17.8022 24.8556 17.2326 26.0566 16.2323C27.2575 15.232 28.0788 13.86 28.3861 12.3406L29.3654 6.59545C29.5203 5.90732 29.5127 5.19329 29.3431 4.50849C29.1734 3.82371 28.8462 3.18649 28.3869 2.6461C27.9274 2.10569 27.348 1.67655 26.6935 1.39183C26.0389 1.10712 25.3266 0.974463 24.6117 1.00406H12.2666" stroke="white" stroke-width="2" stroke-linecap="round" stroke-linejoin="round"/>
</svg>
