<svg width="100%" height="100%" viewBox="0 0 29 26" fill="none" xmlns="http://www.w3.org/2000/svg">
<path d="M27.527 3.47043H18.8892C18.6713 2.49101 18.0893 1.61046 17.2416 0.977987C16.394 0.34551 15.3329 0 14.2381 0C13.1433 0 12.0822 0.34551 11.2346 0.977987C10.3869 1.61046 9.80484 2.49101 9.58698 3.47043H0.949206C0.697461 3.47043 0.456027 3.56173 0.278016 3.72423C0.100005 3.88673 0 4.10714 0 4.33695C0 4.56677 0.100005 4.78717 0.278016 4.94968C0.456027 5.11218 0.697461 5.20347 0.949206 5.20347H27.527C27.7787 5.20347 28.0202 5.11218 28.1982 4.94968C28.3762 4.78717 28.4762 4.56677 28.4762 4.33695C28.4762 4.10714 28.3762 3.88673 28.1982 3.72423C28.0202 3.56173 27.7787 3.47043 27.527 3.47043ZM14.2381 1.73739C14.8256 1.73889 15.3982 1.90625 15.8774 2.21652C16.3567 2.52679 16.719 2.96477 16.9149 3.47043H11.5613C11.7572 2.96477 12.1195 2.52679 12.5988 2.21652C13.078 1.90625 13.6506 1.73889 14.2381 1.73739ZM24.0909 7.00584C23.918 6.93948 23.7275 6.92135 23.5433 6.95374C23.3592 6.98612 23.1897 7.06757 23.0562 7.18781C22.9683 7.26878 22.8986 7.3648 22.8514 7.47038C22.8042 7.57595 22.7802 7.689 22.781 7.80304C22.781 8.03286 22.881 8.25326 23.059 8.41576C23.237 8.57827 23.4784 8.66956 23.7302 8.66956C23.9819 8.66956 24.2233 8.57827 24.4014 8.41576C24.5794 8.25326 24.6794 8.03286 24.6794 7.80304C24.6759 7.57361 24.5775 7.35386 24.4041 7.18781C24.3138 7.10892 24.2074 7.04708 24.0909 7.00584ZM23.7302 10.4026C23.4784 10.4026 23.237 10.4939 23.059 10.6564C22.881 10.8189 22.781 11.0393 22.781 11.2691V13.8687C22.781 14.0985 22.881 14.3189 23.059 14.4814C23.237 14.6439 23.4784 14.7352 23.7302 14.7352C23.9819 14.7352 24.2233 14.6439 24.4014 14.4814C24.5794 14.3189 24.6794 14.0985 24.6794 13.8687V11.2691C24.6794 11.0393 24.5794 10.8189 24.4014 10.6564C24.2233 10.4939 23.9819 10.4026 23.7302 10.4026ZM23.7302 16.4683C23.4784 16.4683 23.237 16.5596 23.059 16.7221C22.881 16.8846 22.781 17.105 22.781 17.3348V23.4004C22.781 23.6303 22.6809 23.8507 22.5029 24.0132C22.3249 24.1757 22.0835 24.267 21.8317 24.267H6.64444C6.3927 24.267 6.15127 24.1757 5.97325 24.0132C5.79524 23.8507 5.69524 23.6303 5.69524 23.4004V7.80304C5.69524 7.57322 5.59523 7.35282 5.41722 7.19032C5.23921 7.02781 4.99778 6.93652 4.74603 6.93652C4.49429 6.93652 4.25285 7.02781 4.07484 7.19032C3.89683 7.35282 3.79683 7.57322 3.79683 7.80304V23.4004C3.79683 24.0899 4.09684 24.7511 4.63087 25.2386C5.16491 25.7261 5.88921 26 6.64444 26H21.8317C22.587 26 23.3113 25.7261 23.8453 25.2386C24.3793 24.7511 24.6794 24.0899 24.6794 23.4004V17.3348C24.6794 17.105 24.5794 16.8846 24.4014 16.7221C24.2233 16.5596 23.9819 16.4683 23.7302 16.4683Z" fill="#314232"/>
<path d="M10.5871 17.3333V8.66667C10.5871 8.48986 10.491 8.32029 10.3198 8.19526C10.1486 8.07024 9.91648 8 9.67442 8C9.43235 8 9.20021 8.07024 9.02904 8.19526C8.85788 8.32029 8.76172 8.48986 8.76172 8.66667V17.3333C8.76172 17.5101 8.85788 17.6797 9.02904 17.8047C9.20021 17.9298 9.43235 18 9.67442 18C9.91648 18 10.1486 17.9298 10.3198 17.8047C10.491 17.6797 10.5871 17.5101 10.5871 17.3333ZM15.1506 17.3333V8.66667C15.1506 8.48986 15.0544 8.32029 14.8833 8.19526C14.7121 8.07024 14.48 8 14.2379 8C13.9958 8 13.7637 8.07024 13.5925 8.19526C13.4214 8.32029 13.3252 8.48986 13.3252 8.66667V17.3333C13.3252 17.5101 13.4214 17.6797 13.5925 17.8047C13.7637 17.9298 13.9958 18 14.2379 18C14.48 18 14.7121 17.9298 14.8833 17.8047C15.0544 17.6797 15.1506 17.5101 15.1506 17.3333ZM19.7141 17.3333V8.66667C19.7141 8.48986 19.6179 8.32029 19.4468 8.19526C19.2756 8.07024 19.0435 8 18.8014 8C18.5593 8 18.3272 8.07024 18.156 8.19526C17.9849 8.32029 17.8887 8.48986 17.8887 8.66667V17.3333C17.8887 17.5101 17.9849 17.6797 18.156 17.8047C18.3272 17.9298 18.5593 18 18.8014 18C19.0435 18 19.2756 17.9298 19.4468 17.8047C19.6179 17.6797 19.7141 17.5101 19.7141 17.3333Z" fill="#314232"/>
</svg>
