<svg width="41" height="37" viewBox="0 0 41 37" fill="none" xmlns="http://www.w3.org/2000/svg">
<path d="M32.0869 35.3332C34.1639 35.3332 35.8476 33.675 35.8476 31.6295C35.8476 29.5839 34.1639 27.9258 32.0869 27.9258C30.0099 27.9258 28.3262 29.5839 28.3262 31.6295C28.3262 33.675 30.0099 35.3332 32.0869 35.3332Z" stroke="#F4B45C" stroke-width="3" stroke-linecap="round" stroke-linejoin="round"/>
<path d="M13.9091 35.3337C15.986 35.3337 17.6697 33.6755 17.6697 31.63C17.6697 29.5844 15.986 27.9263 13.9091 27.9263C11.8321 27.9263 10.1484 29.5844 10.1484 31.63C10.1484 33.6755 11.8321 35.3337 13.9091 35.3337Z" stroke="#F4B45C" stroke-width="3" stroke-linecap="round" stroke-linejoin="round"/>
<path d="M2 2.09479C2 2.09479 10.5503 1.98726 9.37086 9.2633L8.09956 16.5394C7.91096 17.4118 7.92946 18.3145 8.15386 19.179C8.37816 20.0433 8.80246 20.8466 9.39416 21.5276C9.98586 22.2084 10.7296 22.7489 11.5686 23.1082C12.4076 23.4674 13.3198 23.6356 14.2357 23.6003H28.9775C31.019 23.5414 32.9797 22.8111 34.5393 21.5286C36.0988 20.2462 37.1654 18.4872 37.5645 16.5394L38.8362 9.1737C39.0374 8.2915 39.0275 7.376 38.8073 6.49809C38.5869 5.62017 38.1619 4.80321 37.5655 4.11039C36.9688 3.41756 36.2164 2.86737 35.3663 2.50235C34.5163 2.13733 33.5913 1.96726 32.6629 2.0052H16.6312" stroke="#F4B45C" stroke-width="3" stroke-linecap="round" stroke-linejoin="round"/>
</svg>
