<svg width="634" height="634" viewBox="0 0 634 634" fill="none" xmlns="http://www.w3.org/2000/svg">
<path d="M542 483.667H583.667C602.077 483.667 617 468.743 617 450.333V183.667C617 165.257 602.077 150.333 583.667 150.333H50.3333C31.924 150.333 17 165.257 17 183.667V450.333C17 468.743 31.924 483.667 50.3333 483.667H92" stroke="black" stroke-width="33.3333" stroke-linecap="round" stroke-linejoin="round"/>
<path d="M117 317C117 298.59 131.924 283.667 150.333 283.667H483.667C502.077 283.667 517 298.59 517 317V583.667C517 602.077 502.077 617 483.667 617H150.333C131.924 617 117 602.077 117 583.667V317Z" stroke="black" stroke-width="33.3333" stroke-linecap="round" stroke-linejoin="round"/>
<path d="M117 50.3333C117 31.924 131.924 17 150.333 17H483.667C502.077 17 517 31.924 517 50.3333V150.333H117V50.3333Z" stroke="black" stroke-width="33.3333" stroke-linecap="round" stroke-linejoin="round"/>
<path d="M200.334 367H433.667" stroke="black" stroke-width="33.3333" stroke-linecap="round" stroke-linejoin="round"/>
<path d="M200.334 533.667H433.667" stroke="black" stroke-width="33.3333" stroke-linecap="round" stroke-linejoin="round"/>
<path d="M200.334 450.333H433.667" stroke="black" stroke-width="33.3333" stroke-linecap="round" stroke-linejoin="round"/>
</svg>
